<svg xmlns="http://www.w3.org/2000/svg" width="256" height="256"><path fill-opacity=".016" d="M0 128.004v128.004l128.25-.254 128.25-.254.254-127.75L257.008 0H0v128.004m.485.496c0 70.4.119 99.053.265 63.672.146-35.38.146-92.98 0-128C.604 29.153.485 58.1.485 128.5" fill="#1976D2" fill-rule="evenodd"/><path fill-opacity=".35" d="M77.5 20.468C48.522 26.79 21.71 49.534 11.826 76.176c-4.293 11.572-5.036 25.392-1.867 34.741 1.196 3.529 3.562 8.433 5.257 10.896l3.081 4.48-6.088 20.073c-4.442 14.643-5.802 20.42-5.027 21.354.845 1.017 15.185 1.28 69.917 1.28h68.855l1.424-2.25c.783-1.238 8.71-26.454 17.615-56.037 13.073-43.426 15.957-54.068 14.977-55.25-.99-1.192-4.803-1.463-20.592-1.463-17.788 0-19.378-.144-19.379-1.75-.001-3.793-6.155-14.536-11.227-19.602-11.685-11.67-31.756-16.438-51.272-12.18m5.191 3.568C53.12 28.652 24.672 52.112 15.433 79.5c-4.591 13.611-3.641 29.149 2.34 38.277 1.341 2.045 1.684 2.158 2.443.801.736-1.314 3.106-1.578 14.167-1.578 7.306 0 13.517.234 13.803.519.285.285.076 2.76-.466 5.5L46.735 128h-7.368c-6.684 0-7.367.184-7.367 1.987 0 1.345 1.21 2.501 3.75 3.58 4.764 2.026 13.99 4.026 14.806 3.21.621-.621 1.228-3.108 3.452-14.145l1.183-5.867 12.154.408c15.439.519 20.341 3.002 20.912 10.595.201 2.659.275 2.663 4.731.291 2.76-1.469 3.709-2.766 4.544-6.208l1.055-4.351 5.653-.298c5.615-.297 5.698-.348 12.456-7.621 34.455-37.085 23.277-83.057-20.904-85.971-4.011-.264-9.906-.073-13.101.426M82 31.729c-5.077.672-7 1.337-7 2.419 0 .76 1.649.891 5.232.416 2.877-.382 5.435-.898 5.683-1.146.944-.944-1.519-2.006-3.915-1.689m24.176 4.299c.188.565 2.22 2.147 4.515 3.516 5.439 3.243 6.715 1.368 1.366-2.008-4.218-2.663-6.457-3.237-5.881-1.508M51.15 44.006C47.523 46.634 45.826 49 47.57 49c1.532 0 9.396-6.246 8.892-7.062-.783-1.267-.621-1.33-5.312 2.068m45.072 17.546C85.619 69.499 76.552 76 76.073 76c-.48 0-5.066-5.625-10.192-12.5C57.902 52.799 56.166 51 53.816 51c-1.752 0-3.146.748-3.852 2.067-1.322 2.471-1.194 2.689 11.24 19.183C67.154 80.143 70.696 84 71.995 84c1.063 0 11.962-7.446 24.219-16.547 20.997-15.59 25.067-19.534 20.786-20.137-.825-.116-10.175 6.29-20.778 14.236m28.792-.302c.017 4.198.981 7.75 2.103 7.75 1.003 0 1.159-5.37.253-8.75-.897-3.347-2.372-2.721-2.356 1M29.25 66.956C26.846 71.166 26.441 73 27.915 73 28.674 73 34 64.575 34 63.374c0-.206-.562-.371-1.25-.366-.687.004-2.262 1.781-3.5 3.948m88.996 25.294c-2.457 4.638-2.717 5.75-1.345 5.75 1.144 0 5.099-6.638 5.099-8.557 0-2.609-1.467-1.512-3.754 2.807m65.583-.78c-1.999 1.359-4.184 3.721-4.856 5.25-.671 1.529-6.455 20.105-12.853 41.28l-11.631 38.5-72.995.5c-66.512.456-73.207.651-75.388 2.195-5.528 3.914-7.745 11.177-4.69 15.364 1.241 1.701 3.041 2.003 14.549 2.441l13.132.5 4.702-4.38c2.585-2.409 7.626-5.784 11.201-7.5 5.736-2.753 7.519-3.12 15.164-3.12 8.012 0 8.985.226 12.929 3 2.579 1.814 5.202 4.878 6.633 7.75l2.368 4.75h87.213l5.343-5.054c6.642-6.281 14.635-9.919 23.415-10.655 5.725-.48 7.446-.204 12.143 1.947 5.626 2.575 9.149 6.35 10.334 11.073.669 2.667.747 2.689 9.599 2.689 10.257 0 14.259-1.309 18.156-5.941 4.381-5.207 3.222-13.368-2.158-15.184-.718-.242.83-6.809 4.375-18.568 3.017-10.006 5.473-19.231 5.456-20.5-.027-2.174-32.737-44.561-36.699-47.557-1.153-.872-6.217-1.25-16.73-1.25-14.385 0-15.243.113-18.712 2.47M21.011 93.75c.023 3.718 1.291 9.25 2.12 9.25.478 0 .869-2.475.869-5.5 0-4.222-.348-5.5-1.5-5.5-.825 0-1.495.787-1.489 1.75m174.607 8.5c-1.739 1.569-3.421 5.407-5.556 12.675-1.684 5.733-3.062 11.021-3.062 11.75 0 1.065 4.922 1.325 25.073 1.325 21.536 0 25.028-.207 24.75-1.469-.178-.809-4.994-7.109-10.703-14L215.74 100h-8.814c-7.735 0-9.12.275-11.308 2.25m-98.831 12.576C93.58 117.136 91.799 120 93.57 120c1.532 0 9.396-6.246 8.892-7.062-.828-1.339-1.508-1.113-5.675 1.888m-27.224 14.131c-2.308.427-3.122 1.261-3.807 3.903-1.069 4.126-.726 4.512 3.237 3.642 6.003-1.319 6.558-8.653.57-7.545m-20.306 60.162c-6.597 2.536-15.619 10.688-18.82 17.006-2.96 5.84-3.268 13.66-.709 17.992 2.708 4.583 9.249 7.254 16.222 6.621 7.855-.712 14.018-3.649 20.475-9.756 15.808-14.95 12.06-34.114-6.635-33.93-2.91.029-7.649.959-10.533 2.067m142.587-.725c-13.884 4.959-23.776 16.633-23.818 28.106-.037 10.08 6.264 15.108 17.884 14.271 24.541-1.769 41.248-32.739 22.546-41.792-4.671-2.261-11.269-2.494-16.612-.585M48.177 199.683c-7.612 3.751-10.766 14.135-5.542 18.244 7.575 5.959 21.351-1.87 21.361-12.138.007-7.108-7.727-10.093-15.819-6.106m140.323.188c-4.957 3.078-7.63 6.679-8.219 11.07-.787 5.871 2.257 9.06 8.643 9.055 8.217-.006 15.064-6.445 15.072-14.173.007-6.912-8.617-10.225-15.496-5.952" fill="#1976D2" fill-rule="evenodd"/><path fill-opacity=".307" d="M82 20.168C55.931 23.861 28.955 43.175 16.587 67c-5.613 10.815-7.759 19.164-7.836 30.5-.067 9.927 2.069 17.232 7.269 24.859 1.519 2.226 2.601 4.519 2.406 5.095C16.435 133.331 7 165.619 7 166.556c0 .676.712 1.503 1.582 1.837.87.334 31.888.607 68.928.607 59.891 0 67.521-.174 68.919-1.571.864-.865 1.571-1.769 1.571-2.011 0-.241 7.2-24.251 16-53.356s16-53.85 16-54.99c0-2.026-.436-2.072-19.842-2.072h-19.841l-1.255-4.25c-3.292-11.155-11.984-21.202-22.745-26.293-5.86-2.772-18.168-5.454-24.317-5.299-1.925.049-6.425.503-10 1.01m-6.193 4.868c-16.094 3.958-29.948 12.19-42.476 25.239-13.824 14.4-20.285 27.985-21.104 44.371-.486 9.741.904 16.072 5.086 23.159 1.786 3.027 2.175 3.247 3.22 1.82.992-1.357 3.354-1.625 14.327-1.625 14.356 0 13.89-.241 12.087 6.25L45.906 128h-6.984c-5.419 0-7.12.351-7.586 1.567-.331.862-.178 1.991.34 2.509 1.531 1.531 12.21 4.988 16.11 5.214l3.606.21 1.933-9.75 1.932-9.75h11.404c12.412 0 16.949 1.178 19.708 5.117.897 1.28 1.631 3.572 1.631 5.093v2.764l4.478-2.176c3.882-1.885 4.586-2.717 5.278-6.237l.799-4.061 5.683-.509c4.946-.442 6.218-1.026 9.802-4.5 15.922-15.429 25.419-38.133 23.024-55.042-1.721-12.155-8.99-23.391-18.884-29.189-10.655-6.245-27.376-7.911-42.373-4.224M79 32.721c-1.375.247-2.95.921-3.5 1.5-.692.728-.231.86 1.5.429 1.375-.343 3.737-.629 5.25-.636C83.763 34.006 85 33.55 85 33c0-1.016-1.504-1.086-6-.279m27 3.073c0 .46 1.688 1.695 3.75 2.745 5.477 2.788 5.594 2.826 4.821 1.576-.949-1.536-8.571-5.378-8.571-4.321m-54.797 8.635c-4.372 3.092-4.799 3.576-3.12 3.544.78-.015 2.992-1.353 4.917-2.973 4.156-3.498 2.905-3.895-1.797-.571m44.441 18.204c-11.077 8.195-20.144 14.244-20.61 13.75-.457-.486-4.925-6.396-9.928-13.133-9.147-12.318-11.381-14.033-14.066-10.798-.663.799-1.055 2.174-.873 3.057.453 2.183 19.001 27.286 20.653 27.951 1.933.778 3.81-.449 26.511-17.331C116.002 52.244 120.539 48 116.712 48c-.709 0-10.189 6.585-21.068 14.633m29.749-2.051c.334.87.607 3.21.607 5.2 0 2.066.365 3.21.85 2.668 1.134-1.266.214-9.45-1.062-9.45-.551 0-.729.712-.395 1.582M30.86 65.113C28.002 69.517 26.923 72 27.866 72c1.216 0 5.318-6.947 4.88-8.263-.186-.556-1.034.064-1.886 1.376m87.385 28.057c-1.241 2.284-2.061 4.348-1.822 4.586.42.42 5.577-7.194 5.577-8.236 0-1.694-1.808.063-3.755 3.65m-96.13 3.521c-.063 2.855.335 5.469.885 5.809 1.18.729 1.198-1.486.057-7l-.827-4-.115 5.191m74.616 19.017c-2.073 1.423-3.544 2.812-3.27 3.086.521.522 8.539-4.462 8.539-5.308 0-.976-1.583-.309-5.269 2.222m-28.873 12.943c-.909.251-2.088 2.215-2.643 4.401L64.213 137h3.238c3.881 0 6.847-2.868 6.379-6.168-.331-2.339-2.515-3.137-5.972-2.181m-13.711 59.381c-12.392 2.558-24.162 14.503-25.757 26.141-3.121 22.77 32.939 20.866 44.542-2.352 3.603-7.212 3.96-12.846 1.108-17.522-3.426-5.62-11.185-8.064-19.893-6.267m133.353 2.822c-24.001 11.409-26.121 39.621-2.979 39.641 18.669.016 37.044-21.833 29.93-35.589-3.882-7.507-15.886-9.312-26.951-4.052m-138.019 7.54c-3.965 1.727-9.118 7.677-9.957 11.496-2.103 9.577 9.361 14.248 18.278 7.448 7.465-5.694 9.146-12.544 4.275-17.415-3.265-3.265-7.447-3.773-12.596-1.529m140.019.496c-9.872 4.556-13.372 14.919-6.788 20.098 3.277 2.578 7.538 2.553 12.965-.074 9.621-4.657 12.36-15.482 5.046-19.941-3.981-2.427-6.109-2.443-11.223-.083" fill="#1976D2" fill-rule="evenodd"/><path fill-opacity=".266" d="M78.813 33.683c.721.289 1.584.253 1.916-.079.332-.332-.258-.568-1.312-.525-1.165.048-1.402.285-.604.604m47.266 28.9c.048 1.165.285 1.402.604.605.289-.722.253-1.585-.079-1.917-.332-.332-.568.258-.525 1.312M22.158 95c0 1.375.227 1.938.504 1.25.278-.687.278-1.812 0-2.5-.277-.687-.504-.125-.504 1.25m82.661 22.798c-5.512.289-5.7.393-6.308 3.5-.345 1.761-1.023 4.102-1.506 5.202-.483 1.1-2.423 9.537-4.311 18.75L89.262 162h5.801c6.799 0 5.887 1.636 9.802-17.589l2.833-13.911.901 15.5.901 15.5 6.12.294 6.12.295 6.849-14.993c3.766-8.246 6.975-14.865 7.131-14.709.156.155-1.068 6.655-2.718 14.443-1.651 7.787-3.002 14.387-3.002 14.665 0 .278 2.916.505 6.481.505 5.902 0 6.527-.201 6.994-2.25 1.833-8.033 8.525-40.138 8.525-40.895 0-.525-4.405-.802-10.172-.64l-10.173.285-5.802 13c-3.191 7.15-5.882 13.675-5.98 14.5-.344 2.903-1.641-11.596-1.756-19.645L118 118.21l-3.75-.355c-2.062-.195-6.306-.221-9.431-.057m-85.195 6.452C17.366 133.086 12 158.547 12 160.428c0 1.265 1.243 1.572 6.355 1.572h6.356l1.728-8 1.729-8h6.357c3.496 0 6.557-.338 6.801-.75.244-.412.76-2.662 1.147-5l.703-4.25H30.447l.382-4 .381-4 6.645-.118c3.655-.066 6.949-.077 7.321-.025.372.051.968-1.358 1.325-3.132.356-1.774.87-4.012 1.141-4.975.452-1.604-.627-1.75-12.964-1.75H21.222l-1.598 6.25m35.918-5c-.218.688-1.351 5.525-2.517 10.75a3862.351 3862.351 0 01-4.538 20c-1.328 5.775-2.431 10.858-2.451 11.296-.02.437 2.98.662 6.666.5l6.701-.296 1.643-7.5c1.179-5.384 2.038-7.406 3.045-7.168 2.535.601 3.691 2.187 4.339 5.954 1.729 10.058.937 9.214 8.649 9.214 3.807 0 6.905-.338 6.886-.75-.019-.412-.637-3.553-1.372-6.98-1.416-6.601-3.834-11.256-5.866-11.292-.675-.012.608-.856 2.852-1.874 7.654-3.477 10.441-10.296 6.959-17.03-2.276-4.401-7.808-6.074-20.09-6.074-7.531 0-10.623.354-10.906 1.25m10.699 8.266c.408.44.359 1.291-.109 1.892-.468.601-1.128 2.555-1.466 4.342-.594 3.132-.497 3.25 2.668 3.25 4.32 0 6.916-2.016 6.916-5.37 0-1.492-.225-2.939-.501-3.214-.856-.856-8.293-1.747-7.508-.9" fill="#1976D2" fill-rule="evenodd"/></svg>